<svg xmlns="http://www.w3.org/2000/svg" width="10" height="12" viewBox="0 0 10 12"><defs><style>.a{fill:#b52026;}</style></defs><g transform="translate(-46.155)"><g transform="translate(46.155)"><path class="a" d="M54.742,1.438H52.817a1.68,1.68,0,0,0-3.325,0H47.568a1.394,1.394,0,0,0-1.413,1.371v.07a1.374,1.374,0,0,0,.893,1.274v6.476A1.394,1.394,0,0,0,48.461,12H53.85a1.394,1.394,0,0,0,1.413-1.371V4.153a1.374,1.374,0,0,0,.893-1.274v-.07A1.394,1.394,0,0,0,54.742,1.438ZM51.155.65a1,1,0,0,1,.985.788H50.17A1,1,0,0,1,51.155.65Zm3.437,9.979a.733.733,0,0,1-.743.721H48.46a.733.733,0,0,1-.743-.721V4.25h6.874Zm.893-7.75a.733.733,0,0,1-.743.721H47.568a.733.733,0,0,1-.743-.721v-.07a.733.733,0,0,1,.743-.721h7.175a.733.733,0,0,1,.743.721v.07Z" transform="translate(-46.155)"/><path class="a" d="M158.4,253.893a.326.326,0,0,0,.326-.326V249.9a.326.326,0,1,0-.652,0v3.67A.326.326,0,0,0,158.4,253.893Z" transform="translate(-155.201 -243.379)"/><path class="a" d="M228.471,253.893a.326.326,0,0,0,.326-.326V249.9a.326.326,0,1,0-.652,0v3.67A.326.326,0,0,0,228.471,253.893Z" transform="translate(-223.471 -243.379)"/><path class="a" d="M298.54,253.893a.326.326,0,0,0,.326-.326V249.9a.326.326,0,1,0-.652,0v3.67A.326.326,0,0,0,298.54,253.893Z" transform="translate(-291.74 -243.379)"/></g></g></svg>